<?xml version="1.0" encoding="UTF-8"?>
<svg width="238px" height="59px" viewBox="0 0 238 59" version="1.1" xmlns="http://www.w3.org/2000/svg" xmlns:xlink="http://www.w3.org/1999/xlink">
    <!-- Generator: Sketch 56 (81588) - https://sketch.com -->
    <title>Group 2</title>
    <desc>Created with Sketch.</desc>
    <g id="Page-1" stroke="none" stroke-width="1" fill="none" fill-rule="evenodd">
        <g id="Emely-Ragazi" transform="translate(-219.000000, -38.000000)">
            <g id="Group-5">
                <g id="Group-2" transform="translate(220.000000, 38.000000)">
                    <path d="M46.8628217,58.8529412 L46.8628217,53.7205882 L52.6991438,53.7205882 L52.6991438,58.8529412 L53.5689802,58.8529412 L53.5689802,48.1470588 L52.6991438,48.1470588 L52.6991438,52.9558824 L46.8628217,52.9558824 L46.8628217,48.1470588 L46,48.1470588 L46,58.8529412 L46.8628217,58.8529412 Z M67.8971168,59 C68.6874521,59 69.3842566,58.7990196 69.9875303,58.3970588 C70.5908039,57.995098 71.0549506,57.4215686 71.3799701,56.6764706 C71.7049896,55.9313725 71.8674994,55.0661765 71.8674994,54.0808824 L71.8674994,54.0808824 L71.8674994,52.8014706 C71.8534698,51.8455882 71.6827761,51.004902 71.3554183,50.2794118 C71.0280604,49.5539216 70.5639138,48.9926471 69.9629784,48.5955882 C69.362043,48.1985294 68.6687459,48 67.8830872,48 C67.0974284,48 66.4029622,48.2022059 65.7996886,48.6066176 C65.1964149,49.0110294 64.72993,49.5894608 64.4002339,50.3419118 C64.0705378,51.0943627 63.9056898,51.9583333 63.9056898,52.9338235 L63.9056898,52.9338235 L63.9056898,54.0367647 C63.9056898,55.5563725 64.2727982,56.7634804 65.007015,57.6580882 C65.7412318,58.5526961 66.7045991,59 67.8971168,59 Z M67.8971168,58.2132353 C66.9337495,58.2132353 66.1714735,57.8419118 65.6102887,57.0992647 C65.0491039,56.3566176 64.7685115,55.3504902 64.7685115,54.0808824 L64.7685115,54.0808824 L64.7685115,52.9632353 C64.7685115,51.6495098 65.050273,50.6262255 65.6137961,49.8933824 C66.1773192,49.1605392 66.9337495,48.7941176 67.8830872,48.7941176 C68.851131,48.7941176 69.613407,49.1593137 70.1699153,49.8897059 C70.7264236,50.620098 71.0046777,51.629902 71.0046777,52.9191176 L71.0046777,52.9191176 L71.0046777,54.0514706 C71.0046777,55.3602941 70.7311001,56.3811275 70.1839449,57.1139706 C69.6367898,57.8468137 68.8745137,58.2132353 67.8971168,58.2132353 Z M83.0600158,58.8529412 L83.0600158,54.1617647 L82.9898677,49.4485294 L86.7778652,58.8529412 L87.4442722,58.8529412 L91.2462993,49.4117647 L91.1761512,54.1911765 L91.1761512,58.8529412 L92.0389729,58.8529412 L92.0389729,48.1470588 L90.888544,48.1470588 L87.1075613,57.5955882 L83.3406082,48.1470588 L82.1971942,48.1470588 L82.1971942,58.8529412 L83.0600158,58.8529412 Z M109.13796,58.8529412 L109.13796,58.0882353 L103.645363,58.0882353 L103.645363,53.7205882 L108.422449,53.7205882 L108.422449,52.9558824 L103.645363,52.9558824 L103.645363,48.9191176 L109.102885,48.9191176 L109.102885,48.1470588 L102.782541,48.1470588 L102.782541,58.8529412 L109.13796,58.8529412 Z M134.230709,59 C135.315666,59 136.184334,58.7009804 136.836711,58.1029412 C137.489088,57.504902 137.873734,56.6421569 137.990647,55.5147059 L137.990647,55.5147059 L137.120811,55.5147059 C137.01325,56.4215686 136.73032,57.1017157 136.272019,57.5551471 C135.813718,58.0085784 135.133281,58.2352941 134.230709,58.2352941 C133.318784,58.2352941 132.595089,57.8676471 132.059625,57.1323529 C131.524161,56.3970588 131.25643,55.4117647 131.25643,54.1764706 L131.25643,54.1764706 L131.25643,52.8676471 C131.25643,51.5882353 131.531176,50.5857843 132.08067,49.8602941 C132.630163,49.1348039 133.367887,48.7720588 134.293842,48.7720588 C135.963367,48.7720588 136.90569,49.6813725 137.120811,51.5 L137.120811,51.5 L137.990647,51.5 C137.887763,50.4068627 137.519486,49.5502451 136.885815,48.9301471 C136.252144,48.310049 135.388153,48 134.293842,48 C133.517537,48 132.831254,48.1997549 132.234996,48.5992647 C131.638737,48.9987745 131.181605,49.5661765 130.8636,50.3014706 C130.545595,51.0367647 130.386593,51.879902 130.386593,52.8308824 L130.386593,52.8308824 L130.386593,54.2205882 C130.39127,55.1568627 130.55261,55.9889706 130.870615,56.7169118 C131.18862,57.4448529 131.638737,58.0073529 132.220966,58.4044118 C132.803195,58.8014706 133.47311,59 134.230709,59 Z M148.067809,58.8529412 L149.12003,55.8529412 L153.75682,55.8529412 L154.816056,58.8529412 L155.713952,58.8529412 L151.848792,48.1470588 L151.028059,48.1470588 L147.162898,58.8529412 L148.067809,58.8529412 Z M153.483242,55.0808824 L149.386593,55.0808824 L151.434918,49.25 L153.483242,55.0808824 Z M166.219017,58.8529412 L166.219017,54.3970588 L169.186282,54.3970588 L171.655495,58.8529412 L172.574435,58.8529412 L172.574435,58.7573529 L170.021044,54.2058824 C170.666407,54.004902 171.180826,53.6421569 171.564302,53.1176471 C171.947779,52.5931373 172.139517,51.9877451 172.139517,51.3014706 C172.139517,50.3063725 171.833204,49.5318627 171.220577,48.9779412 C170.60795,48.4240196 169.75682,48.1470588 168.667186,48.1470588 L168.667186,48.1470588 L165.349181,48.1470588 L165.349181,58.8529412 L166.219017,58.8529412 Z M168.863601,53.625 L166.219017,53.625 L166.219017,48.9191176 L168.653156,48.9191176 C169.480904,48.9191176 170.123928,49.127451 170.582229,49.5441176 C171.04053,49.9607843 171.26968,50.5465686 171.26968,51.3014706 C171.26968,51.9877451 171.049883,52.5465686 170.610288,52.9779412 C170.170694,53.4093137 169.588464,53.625 168.863601,53.625 L168.863601,53.625 Z M189,58.8529412 L189,58.0882353 L183.507404,58.0882353 L183.507404,53.7205882 L188.284489,53.7205882 L188.284489,52.9558824 L183.507404,52.9558824 L183.507404,48.9191176 L188.964926,48.9191176 L188.964926,48.1470588 L182.644582,48.1470588 L182.644582,58.8529412 L189,58.8529412 Z" id="HOMECARE" fill="#FFFFFF" fill-rule="nonzero"></path>
                    <path d="M0.359756098,37.5 L235.640244,37.5" id="Line" stroke="#FFFFFF" opacity="0.530761719" stroke-linecap="square"></path>
                    <g id="EMELYRAGAZI" transform="translate(3.000000, 0.000000)" fill-rule="nonzero">
                        <path d="M17.1264648,26.2959248 L17.1264648,22.002349 L5.26428223,22.002349 L5.26428223,15.0542388 L15.3717041,15.0542388 L15.3717041,10.867557 L5.26428223,10.867557 L5.26428223,4.68552048 L17.0913696,4.68552048 L17.0913696,0.356313345 L8.17124146e-14,0.356313345 L8.17124146e-14,26.2959248 L17.1264648,26.2959248 Z M25.4213376,26.2959248 L25.4213376,19.2052893 L24.8949093,6.98374155 L31.7735715,26.2959248 L35.3883786,26.2959248 L42.2845883,6.96592589 L41.7581601,19.2052893 L41.7581601,26.2959248 L47.0399899,26.2959248 L47.0399899,0.356313345 L40.1262326,0.356313345 L33.5985226,19.1696579 L27.0357174,0.356313345 L20.1570553,0.356313345 L20.1570553,26.2959248 L25.4213376,26.2959248 Z M68.7061395,26.2959248 L68.7061395,22.002349 L56.8439569,22.002349 L56.8439569,15.0542388 L66.9513787,15.0542388 L66.9513787,10.867557 L56.8439569,10.867557 L56.8439569,4.68552048 L68.6710443,4.68552048 L68.6710443,0.356313345 L51.5796746,0.356313345 L51.5796746,26.2959248 L68.7061395,26.2959248 Z M88.1788381,26.2959248 L88.1788381,22.002349 L77.0010122,22.002349 L77.0010122,0.356313345 L71.73673,0.356313345 L71.73673,26.2959248 L88.1788381,26.2959248 Z M97.7371386,26.2959248 L97.7371386,16.8892525 L106.124895,0.356313345 L100.36928,0.356313345 L95.0523547,12.043391 L89.7705248,0.356313345 L83.997362,0.356313345 L92.3851183,16.8892525 L92.3851183,26.2959248 L97.7371386,26.2959248 Z" id="EMELY" fill="#00BAD3"></path>
                        <path d="M113.665221,26.2959248 L113.665221,16.8001742 L117.859099,16.8001742 L122.649596,26.2959248 L128.299925,26.2959248 L128.299925,26.0465055 L122.772429,15.4461835 C124.30492,14.7454339 125.448439,13.8041728 126.202986,12.6224002 C126.957533,11.4406276 127.334807,9.96489654 127.334807,8.19520693 C127.334807,5.70101351 126.515918,3.7709829 124.878142,2.40511508 C123.240365,1.03924726 120.912382,0.356313345 117.894194,0.356313345 L117.894194,0.356313345 L108.400938,0.356313345 L108.400938,26.2959248 L113.665221,26.2959248 Z M117.911742,12.4709671 L113.665221,12.4709671 L113.665221,4.68552048 L117.894194,4.68552048 C119.309701,4.68552048 120.359633,5.03589527 121.043989,5.73664485 C121.728346,6.43739443 122.070525,7.39944046 122.070525,8.62278294 C122.070525,9.8223712 121.707874,10.7636323 120.982573,11.4465662 C120.257272,12.1295001 119.233661,12.4709671 117.911742,12.4709671 L117.911742,12.4709671 Z M134.537999,26.2959248 L136.29276,20.9512247 L145.522801,20.9512247 L147.29511,26.2959248 L152.892797,26.2959248 L143.32935,0.356313345 L138.451116,0.356313345 L128.940312,26.2959248 L134.537999,26.2959248 Z M144.101445,16.6220175 L137.714116,16.6220175 L140.890233,6.91247889 L144.101445,16.6220175 Z M165.114605,26.6522382 C167.220318,26.6522382 169.138856,26.3345254 170.87022,25.6991 C172.601584,25.0636745 173.941051,24.1699219 174.888622,23.0178421 L174.888622,23.0178421 L174.888622,12.6669394 L164.833843,12.6669394 L164.833843,16.6042019 L169.62434,16.6042019 L169.62434,21.0759343 C168.782055,21.9310864 167.372397,22.3586624 165.395366,22.3586624 C163.430034,22.3586624 161.938488,21.6638514 160.920727,20.2742293 C159.902965,18.8846073 159.394085,16.829867 159.394085,14.1100084 L159.394085,14.1100084 L159.394085,12.4531514 C159.405783,9.75704709 159.879568,7.72606102 160.815441,6.3601932 C161.751313,4.99432538 163.114177,4.31139147 164.904033,4.31139147 C166.307842,4.31139147 167.410417,4.6558277 168.211757,5.34470017 C169.013098,6.03357264 169.530753,7.12032834 169.764721,8.60496727 L169.764721,8.60496727 L174.888622,8.60496727 C174.572765,5.80196896 173.560853,3.66705817 171.852886,2.2002349 C170.144919,0.733411634 167.775992,0 164.746105,0 C162.570202,0 160.672135,0.50180796 159.051906,1.50542388 C157.431677,2.5090398 156.191646,3.9580474 155.331814,5.85244668 C154.471981,7.74684597 154.042064,9.98865076 154.042064,12.5778611 L154.042064,12.5778611 L154.042064,14.3416121 C154.065461,16.8595598 154.530473,19.0508868 155.437099,20.9155933 C156.343726,22.7802998 157.63055,24.2025839 159.297573,25.1824456 C160.964596,26.1623073 162.903606,26.6522382 165.114605,26.6522382 Z M182.355029,26.2959248 L184.109789,20.9512247 L193.339831,20.9512247 L195.112139,26.2959248 L200.709826,26.2959248 L191.14638,0.356313345 L186.268145,0.356313345 L176.757342,26.2959248 L182.355029,26.2959248 Z M191.918475,16.6220175 L185.531146,16.6220175 L188.707262,6.91247889 L191.918475,16.6220175 Z M221.31939,26.2959248 L221.31939,22.002349 L208.439447,22.002349 L221.038629,3.42060811 L221.038629,0.356313345 L201.876641,0.356313345 L201.876641,4.68552048 L214.493371,4.68552048 L201.859094,23.1603674 L201.859094,26.2959248 L221.31939,26.2959248 Z M229.996582,26.2959248 L229.996582,0.356313345 L224.7323,0.356313345 L224.7323,26.2959248 L229.996582,26.2959248 Z" id="RAGAZI" fill="#FFFFFF"></path>
                    </g>
                </g>
            </g>
        </g>
    </g>
</svg>